<svg xmlns="http://www.w3.org/2000/svg" version="1.1" xmlns:xlink="http://www.w3.org/1999/xlink" width="1000" height="1000"><metadata><rdf:RDF xmlns:rdf="http://www.w3.org/1999/02/22-rdf-syntax-ns#" xmlns:dc="http://purl.org/dc/elements/1.1/"><rdf:Description><dc:creator>RealFaviconGenerator</dc:creator><dc:source>https://realfavicongenerator.net</dc:source></rdf:Description></rdf:RDF></metadata><g clip-path="url(#SvgjsClipPath1029)"><rect width="1000" height="1000" fill="#ffffff"></rect><g transform="matrix(0.45,0,0,0.45,50,50)"><svg xmlns="http://www.w3.org/2000/svg" version="1" xmlns:xlink="http://www.w3.org/1999/xlink" width="2000" zoomAndPan="magnify" viewBox="0 0 1500 1499.999933" height="2000" preserveAspectRatio="xMidYMid meet"><defs><clipPath id="18f1ebbe74"><path d="M 318 179 L 1182 179 L 1182 1321 L 318 1321 Z M 318 179 " clip-rule="nonzero"></path></clipPath><clipPath id="cb2cbeb8d7"><path d="M 288.941406 267.234375 L 457.363281 150 L 1211.164062 1232.90625 L 1042.738281 1350.140625 Z M 288.941406 267.234375 " clip-rule="nonzero"></path></clipPath><clipPath id="669e2576d1"><path d="M 350.496094 224.386719 L 395.808594 192.847656 C 412.132812 181.484375 432.304688 177.070312 451.882812 180.578125 C 471.464844 184.085938 488.847656 195.226562 500.210938 211.554688 L 1168.214844 1171.207031 C 1179.578125 1187.53125 1183.992188 1207.703125 1180.484375 1227.28125 C 1176.976562 1246.863281 1165.832031 1264.246094 1149.507812 1275.609375 L 1104.195312 1307.152344 C 1087.871094 1318.515625 1067.699219 1322.929688 1048.121094 1319.417969 C 1028.539062 1315.910156 1011.15625 1304.769531 999.792969 1288.445312 L 331.789062 328.792969 C 320.425781 312.464844 316.011719 292.292969 319.519531 272.714844 C 323.027344 253.136719 334.171875 235.753906 350.496094 224.386719 Z M 350.496094 224.386719 " clip-rule="nonzero"></path></clipPath><clipPath id="2c8eee349d"><path d="M 0 0 L 864 0 L 864 1142 L 0 1142 Z M 0 0 " clip-rule="nonzero"></path></clipPath><clipPath id="0534083669"><path d="M -29.058594 88.234375 L 139.363281 -29 L 893.164062 1053.90625 L 724.738281 1171.140625 Z M -29.058594 88.234375 " clip-rule="nonzero"></path></clipPath><clipPath id="b6e2f11c28"><path d="M 32.496094 45.386719 L 77.808594 13.847656 C 94.132812 2.484375 114.304688 -1.929688 133.882812 1.578125 C 153.464844 5.085938 170.847656 16.226562 182.210938 32.554688 L 850.214844 992.207031 C 861.578125 1008.53125 865.992188 1028.703125 862.484375 1048.28125 C 858.976562 1067.863281 847.832031 1085.246094 831.507812 1096.609375 L 786.195312 1128.152344 C 769.871094 1139.515625 749.699219 1143.929688 730.121094 1140.417969 C 710.539062 1136.910156 693.15625 1125.769531 681.792969 1109.445312 L 13.789062 149.792969 C 2.425781 133.464844 -1.988281 113.292969 1.519531 93.714844 C 5.027344 74.136719 16.171875 56.753906 32.496094 45.386719 Z M 32.496094 45.386719 " clip-rule="nonzero"></path></clipPath><clipPath id="48efbbb926"><rect x="0" width="864" y="0" height="1142"></rect></clipPath><clipPath id="5b9f694bc9"><path d="M 303.339844 179.324219 L 513.449219 179.324219 L 513.449219 1092.8125 L 303.339844 1092.8125 Z M 303.339844 179.324219 " clip-rule="nonzero"></path></clipPath><clipPath id="9c13b0edeb"><path d="M 378.339844 179.324219 L 438.449219 179.324219 C 458.339844 179.324219 477.417969 187.226562 491.484375 201.289062 C 505.546875 215.355469 513.449219 234.433594 513.449219 254.324219 L 513.449219 1017.269531 C 513.449219 1037.164062 505.546875 1056.238281 491.484375 1070.304688 C 477.417969 1084.367188 458.339844 1092.269531 438.449219 1092.269531 L 378.339844 1092.269531 C 358.449219 1092.269531 339.371094 1084.367188 325.304688 1070.304688 C 311.242188 1056.238281 303.339844 1037.164062 303.339844 1017.269531 L 303.339844 254.324219 C 303.339844 234.433594 311.242188 215.355469 325.304688 201.289062 C 339.371094 187.226562 358.449219 179.324219 378.339844 179.324219 Z M 378.339844 179.324219 " clip-rule="nonzero"></path></clipPath><clipPath id="aefdd4632f"><path d="M 0.339844 0.324219 L 210.449219 0.324219 L 210.449219 913 L 0.339844 913 Z M 0.339844 0.324219 " clip-rule="nonzero"></path></clipPath><clipPath id="296757aca9"><path d="M 75.339844 0.324219 L 135.449219 0.324219 C 155.339844 0.324219 174.417969 8.226562 188.484375 22.289062 C 202.546875 36.355469 210.449219 55.433594 210.449219 75.324219 L 210.449219 838.269531 C 210.449219 858.164062 202.546875 877.238281 188.484375 891.304688 C 174.417969 905.367188 155.339844 913.269531 135.449219 913.269531 L 75.339844 913.269531 C 55.449219 913.269531 36.371094 905.367188 22.304688 891.304688 C 8.242188 877.238281 0.339844 858.164062 0.339844 838.269531 L 0.339844 75.324219 C 0.339844 55.433594 8.242188 36.355469 22.304688 22.289062 C 36.371094 8.226562 55.449219 0.324219 75.339844 0.324219 Z M 75.339844 0.324219 " clip-rule="nonzero"></path></clipPath><clipPath id="27c5d66236"><rect x="0" width="211" y="0" height="914"></rect></clipPath><clipPath id="ae35a61824"><path d="M 986.742188 408.066406 L 1196.851562 408.066406 L 1196.851562 1321.554688 L 986.742188 1321.554688 Z M 986.742188 408.066406 " clip-rule="nonzero"></path></clipPath><clipPath id="f61f74931c"><path d="M 1061.742188 408.066406 L 1121.851562 408.066406 C 1141.742188 408.066406 1160.820312 415.96875 1174.886719 430.03125 C 1188.949219 444.097656 1196.851562 463.175781 1196.851562 483.066406 L 1196.851562 1246.011719 C 1196.851562 1265.902344 1188.949219 1284.980469 1174.886719 1299.046875 C 1160.820312 1313.109375 1141.742188 1321.011719 1121.851562 1321.011719 L 1061.742188 1321.011719 C 1041.851562 1321.011719 1022.773438 1313.109375 1008.707031 1299.046875 C 994.644531 1284.980469 986.742188 1265.902344 986.742188 1246.011719 L 986.742188 483.066406 C 986.742188 463.175781 994.644531 444.097656 1008.707031 430.03125 C 1022.773438 415.96875 1041.851562 408.066406 1061.742188 408.066406 Z M 1061.742188 408.066406 " clip-rule="nonzero"></path></clipPath><clipPath id="a60121ccff"><path d="M 0.742188 0.0664062 L 210.851562 0.0664062 L 210.851562 913 L 0.742188 913 Z M 0.742188 0.0664062 " clip-rule="nonzero"></path></clipPath><clipPath id="87569fe118"><path d="M 75.742188 0.0664062 L 135.851562 0.0664062 C 155.742188 0.0664062 174.820312 7.96875 188.886719 22.03125 C 202.949219 36.097656 210.851562 55.175781 210.851562 75.066406 L 210.851562 838.011719 C 210.851562 857.902344 202.949219 876.980469 188.886719 891.046875 C 174.820312 905.109375 155.742188 913.011719 135.851562 913.011719 L 75.742188 913.011719 C 55.851562 913.011719 36.773438 905.109375 22.707031 891.046875 C 8.644531 876.980469 0.742188 857.902344 0.742188 838.011719 L 0.742188 75.066406 C 0.742188 55.175781 8.644531 36.097656 22.707031 22.03125 C 36.773438 7.96875 55.851562 0.0664062 75.742188 0.0664062 Z M 75.742188 0.0664062 " clip-rule="nonzero"></path></clipPath><clipPath id="e4122cdfe8"><rect x="0" width="211" y="0" height="914"></rect></clipPath><clipPath id="SvgjsClipPath1029"><rect width="1000" height="1000" x="0" y="0" rx="350" ry="350"></rect></clipPath></defs><g clip-path="url(#18f1ebbe74)"><g clip-path="url(#cb2cbeb8d7)"><g clip-path="url(#669e2576d1)"><g transform="matrix(1, 0, 0, 1, 318, 179)"><g clip-path="url(#48efbbb926)"><g clip-path="url(#2c8eee349d)"><g clip-path="url(#0534083669)"><g clip-path="url(#b6e2f11c28)"><path fill="#000000" d="M -29.058594 88.234375 L 139.363281 -29 L 893.164062 1053.90625 L 724.738281 1171.140625 Z M -29.058594 88.234375 " fill-opacity="1" fill-rule="nonzero"></path></g></g></g></g></g></g></g></g><g clip-path="url(#5b9f694bc9)"><g clip-path="url(#9c13b0edeb)"><g transform="matrix(1, 0, 0, 1, 303, 179)"><g clip-path="url(#27c5d66236)"><g clip-path="url(#aefdd4632f)"><g clip-path="url(#296757aca9)"><path fill="#000000" d="M 0.339844 0.324219 L 210.449219 0.324219 L 210.449219 912.992188 L 0.339844 912.992188 Z M 0.339844 0.324219 " fill-opacity="1" fill-rule="nonzero"></path></g></g></g></g></g></g><g clip-path="url(#ae35a61824)"><g clip-path="url(#f61f74931c)"><g transform="matrix(1, 0, 0, 1, 986, 408)"><g clip-path="url(#e4122cdfe8)"><g clip-path="url(#a60121ccff)"><g clip-path="url(#87569fe118)"><path fill="#000000" d="M 0.742188 0.0664062 L 210.851562 0.0664062 L 210.851562 912.734375 L 0.742188 912.734375 Z M 0.742188 0.0664062 " fill-opacity="1" fill-rule="nonzero"></path></g></g></g></g></g></g></svg></g></g></svg>