<svg xmlns="http://www.w3.org/2000/svg" xmlns:xlink="http://www.w3.org/1999/xlink" width="2000" zoomAndPan="magnify" viewBox="0 0 1500 1499.999933" height="2000" preserveAspectRatio="xMidYMid meet" version="1.0"><defs><clipPath id="da5325114c"><path d="M 150 150 L 1350 150 L 1350 1350 L 150 1350 Z M 150 150 " clip-rule="nonzero"/></clipPath><clipPath id="2b0505434b"><path d="M 220.5 150 L 1279.5 150 C 1298.199219 150 1316.128906 157.425781 1329.351562 170.648438 C 1342.570312 183.871094 1350 201.800781 1350 220.5 L 1350 1279.5 C 1350 1298.199219 1342.570312 1316.128906 1329.351562 1329.351562 C 1316.128906 1342.570312 1298.199219 1350 1279.5 1350 L 220.5 1350 C 201.800781 1350 183.871094 1342.570312 170.648438 1329.351562 C 157.425781 1316.128906 150 1298.199219 150 1279.5 L 150 220.5 C 150 201.800781 157.425781 183.871094 170.648438 170.648438 C 183.871094 157.425781 201.800781 150 220.5 150 Z M 220.5 150 " clip-rule="nonzero"/></clipPath><clipPath id="dba88a6913"><path d="M 0 0 L 1200 0 L 1200 1200 L 0 1200 Z M 0 0 " clip-rule="nonzero"/></clipPath><clipPath id="f2f2108df3"><path d="M 70.5 0 L 1129.5 0 C 1148.199219 0 1166.128906 7.425781 1179.351562 20.648438 C 1192.570312 33.871094 1200 51.800781 1200 70.5 L 1200 1129.5 C 1200 1148.199219 1192.570312 1166.128906 1179.351562 1179.351562 C 1166.128906 1192.570312 1148.199219 1200 1129.5 1200 L 70.5 1200 C 51.800781 1200 33.871094 1192.570312 20.648438 1179.351562 C 7.425781 1166.128906 0 1148.199219 0 1129.5 L 0 70.5 C 0 51.800781 7.425781 33.871094 20.648438 20.648438 C 33.871094 7.425781 51.800781 0 70.5 0 Z M 70.5 0 " clip-rule="nonzero"/></clipPath><clipPath id="4686ff2765"><rect x="0" width="1200" y="0" height="1200"/></clipPath><clipPath id="fded99c5c6"><path d="M 29 30 L 671 30 L 671 882 L 29 882 Z M 29 30 " clip-rule="nonzero"/></clipPath><clipPath id="ce7ae793c3"><path d="M 0.3125 89.851562 L 128.050781 0.933594 L 699.765625 822.253906 L 572.027344 911.171875 Z M 0.3125 89.851562 " clip-rule="nonzero"/></clipPath><clipPath id="2157cff87c"><path d="M 61.867188 47.003906 L 66.496094 43.78125 C 100.492188 20.117188 147.234375 28.492188 170.898438 62.488281 L 656.84375 760.589844 C 680.507812 794.585938 672.132812 841.332031 638.136719 864.996094 L 633.507812 868.21875 C 599.511719 891.882812 552.765625 883.503906 529.101562 849.507812 L 43.160156 151.40625 C 19.496094 117.410156 27.871094 70.667969 61.867188 47.003906 Z M 61.867188 47.003906 " clip-rule="nonzero"/></clipPath><clipPath id="7fa26428c1"><path d="M 0 0 L 642 0 L 642 852 L 0 852 Z M 0 0 " clip-rule="nonzero"/></clipPath><clipPath id="74a31965fc"><path d="M -28.6875 59.851562 L 99.050781 -29.066406 L 670.765625 792.253906 L 543.027344 881.171875 Z M -28.6875 59.851562 " clip-rule="nonzero"/></clipPath><clipPath id="6f6f6bbf77"><path d="M 32.867188 17.003906 L 37.496094 13.78125 C 71.492188 -9.882812 118.234375 -1.507812 141.898438 32.488281 L 627.84375 730.589844 C 651.507812 764.585938 643.132812 811.332031 609.136719 834.996094 L 604.507812 838.21875 C 570.511719 861.882812 523.765625 853.503906 500.101562 819.507812 L 14.160156 121.40625 C -9.503906 87.410156 -1.128906 40.667969 32.867188 17.003906 Z M 32.867188 17.003906 " clip-rule="nonzero"/></clipPath><clipPath id="4b55db3916"><rect x="0" width="642" y="0" height="852"/></clipPath><clipPath id="6ba891fd01"><path d="M 11.234375 23.175781 L 170.589844 23.175781 L 170.589844 716 L 11.234375 716 Z M 11.234375 23.175781 " clip-rule="nonzero"/></clipPath><clipPath id="e5795a6121"><path d="M 86.234375 23.175781 L 95.589844 23.175781 C 137.011719 23.175781 170.589844 56.753906 170.589844 98.175781 L 170.589844 640.59375 C 170.589844 682.015625 137.011719 715.59375 95.589844 715.59375 L 86.234375 715.59375 C 44.8125 715.59375 11.234375 682.015625 11.234375 640.59375 L 11.234375 98.175781 C 11.234375 56.753906 44.8125 23.175781 86.234375 23.175781 Z M 86.234375 23.175781 " clip-rule="nonzero"/></clipPath><clipPath id="7d1c697b29"><path d="M 0.234375 0.175781 L 159.589844 0.175781 L 159.589844 692.679688 L 0.234375 692.679688 Z M 0.234375 0.175781 " clip-rule="nonzero"/></clipPath><clipPath id="c31670c7d7"><path d="M 75.234375 0.175781 L 84.589844 0.175781 C 126.011719 0.175781 159.589844 33.753906 159.589844 75.175781 L 159.589844 617.59375 C 159.589844 659.015625 126.011719 692.59375 84.589844 692.59375 L 75.234375 692.59375 C 33.8125 692.59375 0.234375 659.015625 0.234375 617.59375 L 0.234375 75.175781 C 0.234375 33.753906 33.8125 0.175781 75.234375 0.175781 Z M 75.234375 0.175781 " clip-rule="nonzero"/></clipPath><clipPath id="e4683f5227"><rect x="0" width="160" y="0" height="693"/></clipPath><clipPath id="48aa8fe2bf"><path d="M 529.554688 196.664062 L 688.910156 196.664062 L 688.910156 889.492188 L 529.554688 889.492188 Z M 529.554688 196.664062 " clip-rule="nonzero"/></clipPath><clipPath id="194c3ee1b0"><path d="M 604.554688 196.664062 L 613.910156 196.664062 C 655.332031 196.664062 688.910156 230.242188 688.910156 271.664062 L 688.910156 814.082031 C 688.910156 855.503906 655.332031 889.082031 613.910156 889.082031 L 604.554688 889.082031 C 563.132812 889.082031 529.554688 855.503906 529.554688 814.082031 L 529.554688 271.664062 C 529.554688 230.242188 563.132812 196.664062 604.554688 196.664062 Z M 604.554688 196.664062 " clip-rule="nonzero"/></clipPath><clipPath id="03d0abc168"><path d="M 0.554688 0.664062 L 159.910156 0.664062 L 159.910156 693 L 0.554688 693 Z M 0.554688 0.664062 " clip-rule="nonzero"/></clipPath><clipPath id="b0b20e3992"><path d="M 75.554688 0.664062 L 84.910156 0.664062 C 126.332031 0.664062 159.910156 34.242188 159.910156 75.664062 L 159.910156 618.082031 C 159.910156 659.503906 126.332031 693.082031 84.910156 693.082031 L 75.554688 693.082031 C 34.132812 693.082031 0.554688 659.503906 0.554688 618.082031 L 0.554688 75.664062 C 0.554688 34.242188 34.132812 0.664062 75.554688 0.664062 Z M 75.554688 0.664062 " clip-rule="nonzero"/></clipPath><clipPath id="b244c0da54"><rect x="0" width="160" y="0" height="694"/></clipPath><clipPath id="36f44efee0"><rect x="0" width="700" y="0" height="912"/></clipPath></defs><g clip-path="url(#da5325114c)"><g clip-path="url(#2b0505434b)"><g transform="matrix(1, 0, 0, 1, 150, 150)"><g clip-path="url(#4686ff2765)"><g clip-path="url(#dba88a6913)"><g clip-path="url(#f2f2108df3)"><rect x="-480" width="2160" fill="#ffffff" height="2159.999904" y="-479.999985" fill-opacity="1"/></g></g></g></g></g></g><g transform="matrix(1, 0, 0, 1, 400, 294)"><g clip-path="url(#36f44efee0)"><g clip-path="url(#fded99c5c6)"><g clip-path="url(#ce7ae793c3)"><g clip-path="url(#2157cff87c)"><g transform="matrix(1, 0, 0, 1, 29, 30)"><g clip-path="url(#4b55db3916)"><g clip-path="url(#7fa26428c1)"><g clip-path="url(#74a31965fc)"><g clip-path="url(#6f6f6bbf77)"><path fill="#000000" d="M -28.6875 59.851562 L 99.050781 -29.066406 L 670.765625 792.253906 L 543.027344 881.171875 Z M -28.6875 59.851562 " fill-opacity="1" fill-rule="nonzero"/></g></g></g></g></g></g></g></g><g clip-path="url(#6ba891fd01)"><g clip-path="url(#e5795a6121)"><g transform="matrix(1, 0, 0, 1, 11, 23)"><g clip-path="url(#e4683f5227)"><g clip-path="url(#7d1c697b29)"><g clip-path="url(#c31670c7d7)"><path fill="#000000" d="M 0.234375 0.175781 L 159.589844 0.175781 L 159.589844 692.382812 L 0.234375 692.382812 Z M 0.234375 0.175781 " fill-opacity="1" fill-rule="nonzero"/></g></g></g></g></g></g><g clip-path="url(#48aa8fe2bf)"><g clip-path="url(#194c3ee1b0)"><g transform="matrix(1, 0, 0, 1, 529, 196)"><g clip-path="url(#b244c0da54)"><g clip-path="url(#03d0abc168)"><g clip-path="url(#b0b20e3992)"><path fill="#000000" d="M 0.554688 0.664062 L 159.910156 0.664062 L 159.910156 692.871094 L 0.554688 692.871094 Z M 0.554688 0.664062 " fill-opacity="1" fill-rule="nonzero"/></g></g></g></g></g></g></g></g></svg>